<svg width="540" height="540" xmlns="http://www.w3.org/2000/svg" preserveAspectRatio="xMidYMid meet" version="1.0">
 <metadata>Created by potrace 1.16, written by Peter Selinger 2001-2019</metadata>

 <g>
  <title>Layer 1</title>
  <g id="svg_1" fill="#44a838" transform="translate(0 540) scale(0.1 -0.1)">
   <path id="svg_2" d="m2340,4783c-36,-63 -73,-129 -83,-146l-19,-30l-73,73l-74,74l-23,-20c-13,-11 -52,-46 -87,-77l-63,-56l-77,59c-42,33 -85,75 -95,95c-34,62 -126,115 -200,115c-139,0 -263,-140 -241,-273c15,-87 83,-172 159,-197l36,-12l0,-531l0,-532l-73,-39c-441,-240 -796,-650 -941,-1086c-75,-225 -79,-259 -83,-718l-5,-412l2279,0l2279,0l14,178c18,248 9,582 -20,717c-106,497 -421,930 -904,1244c-61,39 -114,71 -118,71c-4,0 -8,250 -8,555l0,555l37,15c60,25 99,61 127,117c44,87 32,184 -32,258c-51,60 -104,84 -182,84c-47,0 -76,-6 -106,-22c-78,-41 -134,-128 -134,-210c0,-31 -22,-53 -52,-52c-7,1 -53,64 -102,141l-88,140l-70,-123c-39,-68 -77,-134 -85,-147l-15,-23l-72,71l-73,72l-112,-55l-113,-55l-54,34c-30,19 -59,35 -65,35c-5,0 -46,-21 -90,-46c-45,-25 -85,-42 -89,-37c-5,4 -36,77 -71,161c-34,83 -65,152 -68,152c-3,0 -35,-53 -71,-117zm134,-108c32,-80 59,-145 61,-145c1,0 42,22 91,50c49,27 96,49 104,49c8,0 38,-15 65,-33l50,-33l110,54l109,54l81,-81l81,-80l79,140c44,77 82,140 85,140c3,0 18,-21 35,-48c16,-26 53,-84 82,-129l53,-82l37,16c26,10 38,12 41,4c16,-47 72,-108 125,-135l57,-29l0,-523l0,-524l-57,26c-366,164 -699,238 -1078,237c-381,-1 -704,-67 -1057,-217l-38,-16l0,509l0,509l34,12c84,28 156,125 159,218c2,45 0,45 79,-16l57,-44l84,75l83,76l80,-80l80,-80l44,78c85,151 111,193 118,193c4,0 33,-66 66,-145zm-419,-2509c149,-39 248,-151 247,-281c0,-67 -11,-102 -48,-156c-82,-120 -297,-177 -431,-115c-62,29 -123,90 -155,154c-34,69 -32,169 4,238c33,63 114,137 171,157c53,19 147,21 212,3zm1546,-15c122,-47 199,-150 199,-269c0,-78 -16,-118 -75,-180c-65,-70 -145,-105 -257,-110c-76,-4 -92,-1 -140,20c-157,73 -226,246 -155,390c33,67 109,140 170,162c59,22 185,15 258,-13z"/>
   <path id="svg_3" d="m400,805l0,-145l2300,0l2300,0l0,145l0,145l-2300,0l-2300,0l0,-145z"/>
  </g>
 </g>
</svg>