<?xml version="1.0" standalone="no"?><!DOCTYPE svg PUBLIC "-//W3C//DTD SVG 1.1//EN" "http://www.w3.org/Graphics/SVG/1.1/DTD/svg11.dtd"><svg t="1622343234293" class="icon" viewBox="0 0 1024 1024" version="1.1" xmlns="http://www.w3.org/2000/svg" p-id="8064" xmlns:xlink="http://www.w3.org/1999/xlink" width="200" height="200"><defs><style type="text/css"></style></defs><path d="M949.910588 374.422588h-1.626353c-23.612235 0-47.224471-0.783059-69.993411 0-3.252706 0-5.722353 0-7.348706-0.783059a377.253647 377.253647 0 0 0-54.512942-131.915294c1.626353-2.409412 4.096-4.818824 8.131765-8.914823 15.480471-16.263529 31.744-31.744 48.00753-48.00753A445.138824 445.138824 0 0 0 769.204706 81.317647c-16.263529 17.106824-34.153412 33.370353-50.477177 50.477177-2.409412 2.409412-4.035765 4.096-6.505411 4.879058a355.388235 355.388235 0 0 0-131.855059-53.729882c-0.783059-1.626353-0.783059-3.252706-0.783059-4.818824 0.783059-13.071059 0-25.298824 0-38.309647V4.096C555.971765 1.626353 532.359529 0 507.904 0c-24.395294 0-48.007529 1.626353-71.619765 5.722353 0.843294 12.167529 0 23.552 0 35.779765v38.249411c0 1.626353 0 4.096-0.783059 4.879059a385.084235 385.084235 0 0 0-131.915294 53.729883c-2.409412-0.783059-4.035765-2.409412-6.505411-4.818824-16.263529-17.167059-33.370353-33.430588-50.416942-50.537412a445.138824 445.138824 0 0 0-103.424 103.424c16.263529 15.420235 31.744 31.744 48.067765 48.00753 4.035765 4.035765 6.505412 6.505412 8.131765 8.975059a365.628235 365.628235 0 0 0-53.729883 131.011764c-2.409412 0.843294-4.879059 0.843294-7.348705 0.843294-23.612235-0.843294-47.164235 0-70.776471 0h-1.626353A430.863059 430.863059 0 0 0 60.235294 448.512c0 24.395294 1.626353 48.790588 5.722353 72.463059h79.751529c9.758118 48.790588 29.274353 93.605647 55.356236 133.481412a14.275765 14.275765 0 0 1-3.252706 4.035764c-16.263529 14.697412-31.744 30.960941-48.067765 46.381177l-4.818823 4.939294a434.718118 434.718118 0 0 0 102.52047 101.737412l1.626353-1.626353 51.260235-51.260236a14.275765 14.275765 0 0 1 4.096-3.252705c26.021647 17.046588 54.512941 31.744 85.473883 41.502117v-157.093647c-4.096-2.409412-8.131765-5.722353-12.227765-8.192a239.314824 239.314824 0 0 1-52.103529-51.2c-20.299294-27.708235-34.153412-60.235294-39.875765-96.075294-1.626353-12.227765-3.252706-24.455529-3.252706-36.683294 0-12.167529 0.843294-25.178353 3.252706-36.623059a220.461176 220.461176 0 0 1 39.875765-95.171765c14.697412-20.419765 31.744-37.466353 52.103529-52.163764 27.708235-19.516235 60.235294-33.370353 95.232-39.032471 11.444706-1.626353 23.612235-3.252706 35.84-3.252706 12.227765 0 24.395294 0.783059 35.84 3.252706a229.556706 229.556706 0 0 1 95.171765 39.032471c20.359529 14.697412 37.466353 31.744 52.103529 52.103529 19.576471 27.708235 34.213647 60.235294 39.936 95.232 1.626353 12.227765 3.252706 24.455529 3.252706 36.623059 0 12.227765-0.843294 24.455529-3.252706 36.683294a223.713882 223.713882 0 0 1-104.207059 155.407059v157.936941c30.117647-10.541176 58.608941-24.395294 85.473883-41.502118 1.626353 0.843294 2.409412 1.626353 4.035764 3.252706l51.320471 51.260236 1.626353 1.626352a467.727059 467.727059 0 0 0 102.520471-101.737411l-4.818824-4.818824-47.224471-47.284706c-1.626353-1.626353-2.409412-2.409412-3.252705-4.035764a365.808941 365.808941 0 0 0 55.296-133.481412h79.811764c4.035765-23.612235 5.662118-48.067765 5.662118-72.463059-2.409412-25.238588-4.035765-49.633882-8.131765-74.089412z" fill="#000000" p-id="8065"></path><path d="M674.816 450.138353a166.249412 166.249412 0 0 0-71.68-136.734118c-3.252706-2.409412-6.505412-4.096-9.758118-6.505411v123.723294a39.936 39.936 0 0 1-39.875764 39.875764H462.366118a39.936 39.936 0 0 1-39.875765-39.875764V306.898824c-4.096 2.409412-7.348706 4.818824-10.601412 7.28847a169.441882 169.441882 0 0 0-70.836706 135.951059v5.722353a167.454118 167.454118 0 0 0 70.836706 131.855059c7.288471 4.818824 14.637176 8.914824 21.985883 13.010823v344.304941c-0.843294 39.875765 29.274353 72.463059 69.150117 76.498824h4.096c40.719059 0 74.089412-32.527059 74.089412-73.246118v-347.557647c7.288471-3.252706 13.854118-7.348706 20.299294-12.227764a165.707294 165.707294 0 0 0 72.463059-134.324706c0.843294-1.566118 0.843294-2.409412 0.843294-4.035765z" fill="#000000" p-id="8066"></path></svg>