<?xml version="1.0" standalone="no"?><!DOCTYPE svg PUBLIC "-//W3C//DTD SVG 1.1//EN" "http://www.w3.org/Graphics/SVG/1.1/DTD/svg11.dtd"><svg t="1622368881759" class="icon" viewBox="0 0 1024 1024" version="1.1" xmlns="http://www.w3.org/2000/svg" p-id="3068" xmlns:xlink="http://www.w3.org/1999/xlink" width="200" height="200"><defs><style type="text/css"></style></defs><path d="M683.1104 286.72H798.72a81.92 81.92 0 0 1 81.92 81.92v40.96h40.96a40.96 40.96 0 0 1 40.96 40.96v143.36a40.96 40.96 0 0 1-40.96 40.96h-40.96v20.48c0 135.72096-110.03904 245.76-245.76 245.76H389.12c-135.72096 0-245.76-110.03904-245.76-245.76v-20.48H102.4a40.96 40.96 0 0 1-40.96-40.96v-143.36a40.96 40.96 0 0 1 40.96-40.96h40.96v-40.96a81.92 81.92 0 0 1 81.92-81.92h115.6096l-23.47008-41.82016a61.44 61.44 0 1 1 63.85664-30.5152L421.888 286.72h180.224l40.59136-72.33536a61.44 61.44 0 1 1 63.85664 30.5152L683.13088 286.72zM430.08 675.84a40.96 40.96 0 1 0 0 81.92h163.84a40.96 40.96 0 1 0 0-81.92h-163.84z m-92.16-102.4a71.68 71.68 0 1 0 0-143.36 71.68 71.68 0 0 0 0 143.36z m348.16 0a71.68 71.68 0 1 0 0-143.36 71.68 71.68 0 0 0 0 143.36z" p-id="3069"></path></svg>