<?xml version="1.0" standalone="no"?><!DOCTYPE svg PUBLIC "-//W3C//DTD SVG 1.1//EN" "http://www.w3.org/Graphics/SVG/1.1/DTD/svg11.dtd"><svg t="1624128615795" class="icon" viewBox="0 0 1024 1024" version="1.1" xmlns="http://www.w3.org/2000/svg" p-id="5057" xmlns:xlink="http://www.w3.org/1999/xlink" width="200" height="200"><defs><style type="text/css"></style></defs><path d="M792 64H219.1c-76.1 0-138 60.6-138 135.2v131.9h74.3c17.5 0 32 14 32 31.3s-14.2 31.3-32 31.3H81.1v83.1h74.3c11.3 0 21.8 5.9 27.7 15.6 5.7 9.6 5.7 21.5 0 31.2-5.7 9.6-16.1 15.6-27.7 15.6H81.1v83.2h74.3c17.5 0 32 13.9 32 31.2 0 17.2-14.2 31.3-32 31.3H81.1v141.9c0 0.6 0.2 1.2 0.2 1.8C83.5 901.4 144.4 960 219 960h572.9c76.1 0 138-60.6 138-135.2V199.1C929.8 124.5 868.1 64 792 64zM505.6 256.5c66.9 0 121.1 53.8 121.1 120.2s-54.2 120.2-121.1 120.2c-66.9 0-121.2-53.8-121.2-120.2s54.3-120.2 121.2-120.2z m211.2 456.2c-3.5 73.8-87.2 73.8-211.2 74-124.1-0.2-207.6-0.2-211.2-74-3.5-73.8 45.7-137 83.6-167.7 37.8-30.8 65.5-29.4 65.5-29.4l62.2-0.2 62.2 0.2s27.7-1.4 65.5 29.4c37.7 30.7 86.8 93.9 83.4 167.7z" p-id="5058" fill="#bfcbd9"></path></svg>