<?xml version="1.0" standalone="no"?><!DOCTYPE svg PUBLIC "-//W3C//DTD SVG 1.1//EN" "http://www.w3.org/Graphics/SVG/1.1/DTD/svg11.dtd"><svg t="1624128803607" class="icon" viewBox="0 0 1024 1024" version="1.1" xmlns="http://www.w3.org/2000/svg" p-id="6714" xmlns:xlink="http://www.w3.org/1999/xlink" width="200" height="200"><defs><style type="text/css"></style></defs><path d="M921.6 972.8H102.4C46.08 972.8 0 926.72 0 870.4V307.2h1024v563.2c0 56.32-46.08 102.4-102.4 102.4zM665.6 460.8c0-28.672-22.528-51.2-51.2-51.2H409.6c-28.672 0-51.2 22.528-51.2 51.2s22.528 51.2 51.2 51.2h141.312L409.6 793.6c0 14.336 11.264 25.6 25.6 25.6h51.2c14.336 0 25.6-11.264 25.6-25.6l153.6-307.2V460.8zM0 204.8c0-56.32 46.08-102.4 102.4-102.4h107.52c10.24-29.696 37.888-51.2 71.68-51.2s61.44 21.504 71.68 51.2h317.44c10.24-29.696 37.888-51.2 71.68-51.2s61.44 21.504 71.68 51.2H921.6c56.32 0 102.4 46.08 102.4 102.4v51.2H0v-51.2z m716.8 0h51.2V102.4h-51.2v102.4z m-460.8 0h51.2V102.4h-51.2v102.4z" p-id="6715"></path></svg>