<?xml version="1.0" standalone="no"?><!DOCTYPE svg PUBLIC "-//W3C//DTD SVG 1.1//EN" "http://www.w3.org/Graphics/SVG/1.1/DTD/svg11.dtd"><svg t="1630173709821" class="icon" viewBox="0 0 1024 1024" version="1.1" xmlns="http://www.w3.org/2000/svg" p-id="2154" xmlns:xlink="http://www.w3.org/1999/xlink" width="200" height="200"><defs><style type="text/css"></style></defs><path d="M435.2 205.866667a76.8 76.8 0 1 0 153.6 0 76.8 76.8 0 1 0-153.6 0Z" p-id="2155"></path><path d="M779.733333 263.466667L614.4 373.333333v484.266667c0 21.333333-17.066667 38.4-38.4 38.4s-38.4-17.066667-38.4-38.4l-12.8-268.8h-25.6l-12.8 268.8c0 21.333333-17.066667 38.4-38.4 38.4s-38.4-17.066667-38.4-38.4V374.4L244.266667 263.466667c-14.933333-8.533333-20.266667-28.8-11.733334-43.733334s28.8-20.266667 43.733334-11.733333l170.666666 99.2H576l171.733333-99.2c14.933333-8.533333 35.2-3.2 43.733334 11.733333 8.533333 14.933333 3.2 35.2-11.733334 43.733334z" p-id="2156"></path></svg>