<?xml version="1.0" standalone="no"?><!DOCTYPE svg PUBLIC "-//W3C//DTD SVG 1.1//EN" "http://www.w3.org/Graphics/SVG/1.1/DTD/svg11.dtd"><svg t="1629531641743" class="icon" viewBox="0 0 1024 1024" version="1.1" xmlns="http://www.w3.org/2000/svg" p-id="4218" xmlns:xlink="http://www.w3.org/1999/xlink" width="200" height="200"><defs><style type="text/css"></style></defs><path d="M409.6 588.8V64c0-32-32-64-64-64s-64 32-64 64v128H185.6c-38.4 0-64 25.6-64 64s25.6 64 64 64h96v268.8c-89.6 25.6-160 108.8-160 211.2 0 121.6 102.4 224 224 224s224-102.4 224-224c0-102.4-70.4-185.6-160-211.2z m-64 307.2c-51.2 0-96-44.8-96-96S294.4 704 345.6 704s96 44.8 96 96S396.8 896 345.6 896zM588.8 0c-32 0-64 32-64 64v256c0 32 32 64 64 64s64-32 64-64V64c0-32-32-64-64-64zM832 0c-32 0-64 32-64 64v512c0 32 32 64 64 64s64-32 64-64V64c0-32-32-64-64-64z" p-id="4219"></path></svg>