<?xml version="1.0" standalone="no"?><!DOCTYPE svg PUBLIC "-//W3C//DTD SVG 1.1//EN" "http://www.w3.org/Graphics/SVG/1.1/DTD/svg11.dtd"><svg t="1622343004252" class="icon" viewBox="0 0 1024 1024" version="1.1" xmlns="http://www.w3.org/2000/svg" p-id="7055" xmlns:xlink="http://www.w3.org/1999/xlink" width="200" height="200"><defs><style type="text/css"></style></defs><path d="M543.808 73.824l0.192 1.888v91.84l344.928 94.08a9.6 9.6 0 0 1 7.072 9.28V470.4a9.6 9.6 0 0 1-9.6 9.6h-44.8a9.6 9.6 0 0 1-9.6-9.6V312.416l-288-78.528V896h67.392a9.6 9.6 0 0 1 9.6 9.6v44.8a9.6 9.6 0 0 1-9.6 9.6H73.6a9.6 9.6 0 0 1-9.6-9.6V167.872a9.6 9.6 0 0 1 7.712-9.408l460.8-92.16a9.6 9.6 0 0 1 11.296 7.52z m239.52 440.96l170.56 98.432a9.6 9.6 0 0 1 4.8 8.32v196.928a9.6 9.6 0 0 1-4.8 8.32l-170.56 98.432a9.6 9.6 0 0 1-9.6 0l-170.528-98.432a9.6 9.6 0 0 1-4.8-8.32v-196.928a9.6 9.6 0 0 1 4.8-8.32l170.56-98.432a9.6 9.6 0 0 1 9.6 0zM480 142.048l-352 70.4V896h352V142.048z m298.56 443.84l-116.16 67.072v134.048l116.16 67.072 116.096-67.072v-134.048l-116.128-67.072z m0 70.112a64 64 0 1 1 0 128 64 64 0 0 1 0-128zM406.4 608a9.6 9.6 0 0 1 9.6 9.6v44.8a9.6 9.6 0 0 1-9.6 9.6H201.6a9.6 9.6 0 0 1-9.6-9.6v-44.8a9.6 9.6 0 0 1 9.6-9.6h204.8z m0-128a9.6 9.6 0 0 1 9.6 9.6v44.8a9.6 9.6 0 0 1-9.6 9.6H201.6a9.6 9.6 0 0 1-9.6-9.6v-44.8a9.6 9.6 0 0 1 9.6-9.6h204.8z m0-128a9.6 9.6 0 0 1 9.6 9.6v44.8a9.6 9.6 0 0 1-9.6 9.6H201.6a9.6 9.6 0 0 1-9.6-9.6v-44.8a9.6 9.6 0 0 1 9.6-9.6h204.8z" fill="#000000" p-id="7056"></path></svg>