<?xml version="1.0" standalone="no"?><!DOCTYPE svg PUBLIC "-//W3C//DTD SVG 1.1//EN" "http://www.w3.org/Graphics/SVG/1.1/DTD/svg11.dtd"><svg t="1624139027277" class="icon" viewBox="0 0 1024 1024" version="1.1" xmlns="http://www.w3.org/2000/svg" p-id="8242" xmlns:xlink="http://www.w3.org/1999/xlink" width="200" height="200"><defs><style type="text/css"></style></defs><path d="M832 512a128 128 0 0 1 128 128v192a128 128 0 0 1-128 128h-192a128 128 0 0 1-128-128v-192a128 128 0 0 1 128-128zM288 512a224 224 0 1 1 0 448 224 224 0 0 1 0-448z m-63.68-438.592a64 64 0 0 1 87.36 23.872l145.6 254.976A64 64 0 0 1 401.728 448H110.336a64 64 0 0 1-55.616-95.744l145.792-255.04a64 64 0 0 1 23.808-23.808zM915.008 64c24.832 0 44.992 19.072 44.992 42.688v298.624c0 23.616-20.16 42.688-44.992 42.688H602.944a45.44 45.44 0 0 1-39.36-22.016L389.632 127.296a41.6 41.6 0 0 1 17.6-57.984 46.912 46.912 0 0 1 21.76-5.312h486.016z m-44.992 85.312h-364.8l124.288 213.376h240.512V149.312z" p-id="8243"></path></svg>