<?xml version="1.0" standalone="no"?><!DOCTYPE svg PUBLIC "-//W3C//DTD SVG 1.1//EN" "http://www.w3.org/Graphics/SVG/1.1/DTD/svg11.dtd"><svg t="1622342670913" class="icon" viewBox="0 0 1024 1024" version="1.1" xmlns="http://www.w3.org/2000/svg" p-id="5915" xmlns:xlink="http://www.w3.org/1999/xlink" width="200" height="200"><defs><style type="text/css"></style></defs><path d="M494.933333 477.866667h34.133334v34.133333h-34.133334zM460.8 546.133333h102.4v34.133334h-102.4zM871.291733 853.297067a101.934933 101.934933 0 0 0-19.2384 1.742933c-8.3584-55.8464-60.407467-94.344533-116.256-85.984-44.443733 6.651733-79.332267 41.5424-85.984 85.984a97.550933 97.550933 0 0 0-36.693333 0c-8.3584-55.8464-60.407467-94.344533-116.256-85.984-44.443733 6.651733-79.332267 41.5424-85.984 85.984a97.550933 97.550933 0 0 0-36.693333 0c-8.3584-55.8464-60.407467-94.344533-116.256-85.984-44.443733 6.651733-79.332267 41.5424-85.984 85.984-55.355733-10.368-108.635733 26.0992-119.003734 81.454933A102.094933 102.094933 0 0 0 51.2 955.733333v51.2a17.066667 17.066667 0 0 0 17.066667 17.066667h170.666666a17.066667 17.066667 0 0 0 17.066667-17.066667v-51.2a102.410667 102.410667 0 0 0-1.536-17.066666h37.205333a102.410667 102.410667 0 0 0-1.536 17.066666v51.2a17.066667 17.066667 0 0 0 17.066667 17.066667h170.666667a17.066667 17.066667 0 0 0 17.066666-17.066667v-51.2a102.410667 102.410667 0 0 0-1.536-17.066666h37.205334a102.410667 102.410667 0 0 0-1.536 17.066666v51.2a17.066667 17.066667 0 0 0 17.066666 17.066667h170.666667a17.066667 17.066667 0 0 0 17.066667-17.066667v-51.2a102.410667 102.410667 0 0 0-1.536-17.066666h37.205333a102.410667 102.410667 0 0 0-1.536 17.066666v51.2a17.066667 17.066667 0 0 0 17.066667 17.066667h170.666666a17.066667 17.066667 0 0 0 17.066667-17.066667v-51.2c0.256-56.317867-45.1904-102.180267-101.508267-102.436266zM221.866667 989.866667H85.333333v-34.133334c0-37.7024 30.564267-68.266667 68.266667-68.266666s68.266667 30.564267 68.266667 68.266666v34.133334z m82.1248-85.333334h-61.8496a102.8992 102.8992 0 0 0-37.034667-37.154133c1.457067-37.533867 33.064533-66.7776 70.5984-65.320533 35.490133 1.378133 63.944533 29.832533 65.320533 65.320533A102.8992 102.8992 0 0 0 303.991467 904.533333zM460.8 989.866667h-136.533333v-34.133334c0-37.7024 30.564267-68.266667 68.266666-68.266666s68.266667 30.564267 68.266667 68.266666v34.133334z m82.1248-85.333334h-61.8496a102.8992 102.8992 0 0 0-37.034667-37.154133c1.457067-37.533867 33.064533-66.7776 70.5984-65.320533 35.490133 1.378133 63.9424 29.832533 65.320534 65.320533A102.8992 102.8992 0 0 0 542.9248 904.533333zM699.733333 989.866667h-136.533333v-34.133334c0-37.7024 30.564267-68.266667 68.266667-68.266666 37.7024 0 68.266667 30.564267 68.266666 68.266666v34.133334z m82.1248-85.333334h-61.8496a102.8992 102.8992 0 0 0-37.034666-37.154133c1.457067-37.533867 33.064533-66.7776 70.5984-65.320533 35.490133 1.378133 63.944533 29.832533 65.320533 65.320533A102.8992 102.8992 0 0 0 781.858133 904.533333zM938.666667 989.866667h-136.533334v-34.133334c0-37.7024 30.564267-68.266667 68.266667-68.266666 37.7024 0 68.266667 30.564267 68.266667 68.266666v34.133334z" p-id="5916"></path><path d="M1006.933333 0H17.066667a17.066667 17.066667 0 0 0-17.066667 17.066667v68.266666a17.066667 17.066667 0 0 0 17.066667 17.066667h34.133333v460.8a17.066667 17.066667 0 0 0 17.066667 17.066667h313.565866l7.867734 51.2H375.466667a17.066667 17.066667 0 0 0-17.066667 17.066666v68.266667a17.066667 17.066667 0 0 0 17.066667 17.066667h273.066666a17.066667 17.066667 0 0 0 17.066667-17.066667v-68.266667a17.066667 17.066667 0 0 0-17.066667-17.066666h-14.2336l7.867734-51.2H955.733333a17.066667 17.066667 0 0 0 17.066667-17.066667V102.4h34.133333a17.066667 17.066667 0 0 0 17.066667-17.066667V17.066667a17.066667 17.066667 0 0 0-17.066667-17.066667zM631.466667 699.733333H392.533333v-34.133333h238.933334v34.133333zM395.3664 443.733333h233.2672l-28.8768 187.733334h-175.5136l-28.8768-187.733334z m-57.770667-34.133333l-8.533333-34.133333h365.8752l-8.533333 34.133333H337.595733zM938.666667 546.133333H647.424l15.752533-102.4H699.733333a17.066667 17.066667 0 0 0 16.554667-12.936533l17.066667-68.266667A17.066667 17.066667 0 0 0 716.8 341.333333h-34.133333v-51.2a17.066667 17.066667 0 0 0-5.000534-12.066133L643.413333 243.797333A50.363733 50.363733 0 0 0 648.533333 221.866667c0-28.277333-22.922667-51.2-51.2-51.2s-51.2 22.922667-51.2 51.2 22.922667 51.2 51.2 51.2a50.363733 50.363733 0 0 0 21.930667-5.12L648.533333 297.198933V341.333333H375.466667v-44.1344l29.269333-29.252266A50.363733 50.363733 0 0 0 426.666667 273.066667c28.277333 0 51.2-22.922667 51.2-51.2s-22.922667-51.2-51.2-51.2-51.2 22.922667-51.2 51.2a50.363733 50.363733 0 0 0 5.12 21.930666l-34.269867 34.269867A17.066667 17.066667 0 0 0 341.333333 290.133333v51.2h-34.133333a17.066667 17.066667 0 0 0-16.554667 21.1968l17.066667 68.266667A17.066667 17.066667 0 0 0 324.266667 443.733333h36.5568l15.752533 102.4H85.333333V102.4h853.333334v443.733333zM614.4 221.866667a17.066667 17.066667 0 1 1-34.133333 0 17.066667 17.066667 0 0 1 34.133333 0z m-204.8 0a17.066667 17.066667 0 1 1 34.133333 0 17.066667 17.066667 0 0 1-34.133333 0z m580.266667-153.6H34.133333V34.133333h955.733334v34.133334z" p-id="5917"></path></svg>