<?xml version="1.0" standalone="no"?><!DOCTYPE svg PUBLIC "-//W3C//DTD SVG 1.1//EN" "http://www.w3.org/Graphics/SVG/1.1/DTD/svg11.dtd"><svg t="1624139292317" class="icon" viewBox="0 0 1024 1024" version="1.1" xmlns="http://www.w3.org/2000/svg" p-id="11562" xmlns:xlink="http://www.w3.org/1999/xlink" width="200" height="200"><defs><style type="text/css"></style></defs><path d="M174.5 62h675C911.375 62 962 112.625 962 174.5v675c0 61.875-50.625 112.5-112.5 112.5h-675C112.625 962 62 911.375 62 849.5v-675C62 112.625 112.625 62 174.5 62z m461.25 669.375v-22.5c-11.25-5.625-22.5-5.625-33.75-11.25-11.25 0-22.5-5.625-39.375-5.625V332h95.625l39.375 106.875h22.5c0-11.25 0-22.5 5.625-33.75v-112.5H292.625v112.5c0 11.25 0 22.5 5.625 33.75h16.875L354.5 332h101.25v365.625c-11.25 0-28.125 5.625-39.375 5.625-11.25 5.625-22.5 5.625-33.75 11.25V737H635.75z" p-id="11563"></path></svg>