<?xml version="1.0" standalone="no"?><!DOCTYPE svg PUBLIC "-//W3C//DTD SVG 1.1//EN" "http://www.w3.org/Graphics/SVG/1.1/DTD/svg11.dtd"><svg t="1622343120895" class="icon" viewBox="0 0 1024 1024" version="1.1" xmlns="http://www.w3.org/2000/svg" p-id="7190" xmlns:xlink="http://www.w3.org/1999/xlink" width="200" height="200"><defs><style type="text/css"></style></defs><path d="M800 896a32 32 0 0 1 0 64H224a32 32 0 0 1 0-64h576z m128-832a32 32 0 0 1 32 32v704a32 32 0 0 1-32 32H96a32 32 0 0 1-32-32V96a32 32 0 0 1 32-32h832z m-32 64H128v640h768V128z m-128 96a64 64 0 0 1 32.032 119.424L800 576l-0.16 5.632a96 96 0 0 1-191.68 0L608 576v-256a32 32 0 0 0-63.776-3.744L544 320v256l-0.16 5.632a96 96 0 0 1-191.68 0L352 576v-256a32 32 0 0 0-63.776-3.744L288 320l0.032 232.576a64 64 0 1 1-64.032 0V320a96 96 0 0 1 191.84-5.632L416 320v256l0.224 3.744a32 32 0 0 0 63.552 0L480 576v-256a96 96 0 0 1 191.84-5.632L672 320v256l0.224 3.744a32 32 0 0 0 63.552 0L736 576v-232.576A64 64 0 0 1 768 224z" fill="#2c2c2c" p-id="7191"></path></svg>